<mxfile host="app.diagrams.net" modified="2023-12-06T10:20:55.709Z" agent="Mozilla/5.0 (X11; Linux x86_64; rv:109.0) Gecko/20100101 Firefox/115.0" etag="Uv--SwasPTGAyTHFrgfT" version="22.1.5" type="device">
  <diagram name="Página-1" id="-JkIOXFNWmTnDN814xZK">
    <mxGraphModel dx="1165" dy="588" grid="1" gridSize="10" guides="1" tooltips="1" connect="1" arrows="1" fold="1" page="1" pageScale="1" pageWidth="1169" pageHeight="827" background="#b6eeb8" math="0" shadow="0">
      <root>
        <mxCell id="0" />
        <mxCell id="1" parent="0" />
        <mxCell id="gy3GCSl5opKqmYD9pozu-1" value="" style="rounded=0;whiteSpace=wrap;html=1;fillColor=none;" vertex="1" parent="1">
          <mxGeometry x="120" y="120" width="940" height="400" as="geometry" />
        </mxCell>
        <mxCell id="eTTZJ9YqVXw9v8S5qD4r-2" style="edgeStyle=orthogonalEdgeStyle;rounded=1;orthogonalLoop=1;jettySize=auto;html=1;exitX=1;exitY=0.5;exitDx=0;exitDy=0;entryX=0;entryY=0.5;entryDx=0;entryDy=0;endArrow=none;endFill=0;startArrow=classic;startFill=1;" parent="1" source="M2E19cieBR7NBifoGKxq-1" target="eTTZJ9YqVXw9v8S5qD4r-1" edge="1">
          <mxGeometry relative="1" as="geometry" />
        </mxCell>
        <mxCell id="M2E19cieBR7NBifoGKxq-1" value="&lt;font style=&quot;font-size: 25px;&quot;&gt;Gestión Bar&lt;/font&gt;" style="ellipse;whiteSpace=wrap;html=1;aspect=fixed;rounded=1;" parent="1" vertex="1">
          <mxGeometry x="505" y="280" width="160" height="160" as="geometry" />
        </mxCell>
        <mxCell id="M2E19cieBR7NBifoGKxq-2" value="&lt;font style=&quot;font-size: 15px;&quot;&gt;Personal de cocina&lt;/font&gt;" style="rounded=1;whiteSpace=wrap;html=1;" parent="1" vertex="1">
          <mxGeometry x="165" y="320" width="140" height="80" as="geometry" />
        </mxCell>
        <mxCell id="M2E19cieBR7NBifoGKxq-3" value="" style="endArrow=classic;html=1;rounded=1;exitX=1;exitY=0.5;exitDx=0;exitDy=0;" parent="1" source="M2E19cieBR7NBifoGKxq-2" target="M2E19cieBR7NBifoGKxq-1" edge="1">
          <mxGeometry width="50" height="50" relative="1" as="geometry">
            <mxPoint x="665" y="440" as="sourcePoint" />
            <mxPoint x="715" y="390" as="targetPoint" />
          </mxGeometry>
        </mxCell>
        <mxCell id="M2E19cieBR7NBifoGKxq-6" value="&lt;font style=&quot;font-size: 16px;&quot;&gt;0&lt;/font&gt;" style="text;html=1;strokeColor=none;fillColor=none;align=center;verticalAlign=middle;whiteSpace=wrap;rounded=1;" parent="1" vertex="1">
          <mxGeometry x="570" y="290" width="30" height="20" as="geometry" />
        </mxCell>
        <mxCell id="eTTZJ9YqVXw9v8S5qD4r-1" value="&lt;font style=&quot;font-size: 15px;&quot;&gt;Personal de sala&lt;/font&gt;" style="rounded=1;whiteSpace=wrap;html=1;" parent="1" vertex="1">
          <mxGeometry x="865" y="320" width="140" height="80" as="geometry" />
        </mxCell>
        <mxCell id="eTTZJ9YqVXw9v8S5qD4r-3" value="Trabajan" style="text;html=1;strokeColor=none;fillColor=none;align=center;verticalAlign=middle;whiteSpace=wrap;rounded=1;" parent="1" vertex="1">
          <mxGeometry x="375" y="320" width="60" height="30" as="geometry" />
        </mxCell>
        <mxCell id="eTTZJ9YqVXw9v8S5qD4r-5" value="&lt;div style=&quot;font-size: 20px;&quot; align=&quot;left&quot;&gt;&lt;i&gt;&lt;b&gt;Diagrama de contexto&lt;/b&gt;&lt;br&gt;&lt;/i&gt;&lt;/div&gt;" style="rounded=1;whiteSpace=wrap;html=1;align=left;" parent="1" vertex="1">
          <mxGeometry x="475" y="160" width="219" height="30" as="geometry" />
        </mxCell>
        <mxCell id="eTTZJ9YqVXw9v8S5qD4r-6" value="Trabajan" style="text;html=1;strokeColor=none;fillColor=none;align=center;verticalAlign=middle;whiteSpace=wrap;rounded=1;" parent="1" vertex="1">
          <mxGeometry x="740" y="320" width="60" height="30" as="geometry" />
        </mxCell>
      </root>
    </mxGraphModel>
  </diagram>
</mxfile>
